<svg width="915" height="915" viewBox="0 0 915 915" fill="none" xmlns="http://www.w3.org/2000/svg">
<path d="M457.5 915C710.17 915 915 710.17 915 457.5C915 204.83 710.17 0 457.5 0C204.83 0 0 204.83 0 457.5C0 710.17 204.83 915 457.5 915Z" fill="black"/>
<path d="M458.243 774.495L514.281 682.362L476.381 660.832L484.683 630.719L531.309 657.854L584.385 567.034C584.385 567.034 473.363 609.274 485.934 487.691C490.461 443.925 537.603 426.962 568.882 441.167C600.162 455.371 615.578 500.746 615.578 500.746L681.029 397.864L602.435 264.17L477.444 386.91C477.444 386.91 492.016 298.89 556.116 249.262C533.851 222.814 458.243 135.128 458.243 135.128C458.243 135.128 382.629 222.814 360.364 249.262C424.464 298.89 439.036 386.91 439.036 386.91L314.052 264.17L235.458 397.864L300.909 500.746C300.909 500.746 316.326 455.371 347.605 441.167C378.885 426.962 426.027 443.925 430.552 487.691C443.125 609.274 332.095 567.034 332.095 567.034L385.179 657.854L431.797 630.719L440.106 660.832L402.197 682.362L458.243 774.495Z" fill="white"/>
</svg>
