<svg width="915" height="915" viewBox="0 0 915 915" fill="none" xmlns="http://www.w3.org/2000/svg">
<circle cx="457.498" cy="457.498" r="413.387" stroke="#040505" stroke-width="88.2227" stroke-dasharray="126.03 100.83"/>
<mask id="mask0_406_27" style="mask-type:alpha" maskUnits="userSpaceOnUse" x="0" y="0" width="915" height="915">
<circle cx="457.5" cy="457.498" r="413.386" stroke="black" stroke-width="88.2227"/>
</mask>
<g mask="url(#mask0_406_27)">
<path d="M-172.662 -42.8508H909.326L1020.24 878.446L436.075 975.491V489.006H-172.662V-42.8508Z" fill="#040505"/>
</g>
<path d="M457.421 738.351L504.816 660.429L472.762 642.219L479.783 616.751L519.217 639.7L564.107 562.889C564.107 562.889 470.209 598.614 480.841 495.785C484.67 458.769 524.541 444.422 550.995 456.437C577.45 468.45 590.489 506.826 590.489 506.826L645.844 419.813L579.373 306.741L473.661 410.549C473.661 410.549 485.985 336.105 540.198 294.132C521.367 271.763 457.421 197.602 457.421 197.602C457.421 197.602 393.47 271.763 374.639 294.132C428.852 336.105 441.177 410.549 441.177 410.549L335.471 306.741L269 419.813L324.355 506.826C324.355 506.826 337.394 468.45 363.849 456.437C390.303 444.422 430.174 458.769 434.001 495.785C444.635 598.614 350.731 562.889 350.731 562.889L395.627 639.7L435.054 616.751L442.082 642.219L410.02 660.429L457.421 738.351Z" fill="black"/>
</svg>
