<svg width="915" height="915" viewBox="0 0 915 915" fill="none" xmlns="http://www.w3.org/2000/svg">
<circle cx="457.5" cy="457.5" r="457.5" fill="black"/>
<path d="M458.421 789.358L517.386 692.413L477.507 669.758L486.242 638.072L535.303 666.624L591.152 571.06C591.152 571.06 474.331 615.507 487.558 487.574C492.322 441.522 541.926 423.672 574.84 438.62C607.753 453.565 623.975 501.31 623.975 501.31L692.844 393.054L610.145 252.378L478.625 381.529C478.625 381.529 493.958 288.911 561.406 236.691C537.978 208.861 458.421 116.595 458.421 116.595C458.421 116.595 378.858 208.861 355.43 236.691C422.877 288.911 438.211 381.529 438.211 381.529L306.699 252.378L224 393.054L292.869 501.31C292.869 501.31 309.091 453.565 342.004 438.62C374.918 423.672 424.522 441.522 429.284 487.574C442.513 615.507 325.684 571.06 325.684 571.06L381.541 666.624L430.593 638.072L439.337 669.758L399.447 692.413L458.421 789.358Z" fill="white"/>
</svg>
