<svg width="915" height="915" viewBox="0 0 915 915" fill="none" xmlns="http://www.w3.org/2000/svg">
<circle cx="457.499" cy="457.499" r="413.339" stroke="#040505" stroke-width="88.3194" stroke-dasharray="126.17 100.94"/>
<mask id="mask0_406_7" style="mask-type:alpha" maskUnits="userSpaceOnUse" x="0" y="0" width="915" height="915">
<circle cx="457.501" cy="457.499" r="413.339" stroke="black" stroke-width="88.3194"/>
</mask>
<g mask="url(#mask0_406_7)">
<rect x="-172.663" y="-42.8508" width="613.78" height="531.858" fill="#040505"/>
</g>
<path d="M458.421 727.351L505.816 649.429L473.762 631.219L480.783 605.751L520.217 628.7L565.107 551.889C565.107 551.889 471.209 587.614 481.841 484.785C485.67 447.769 525.541 433.422 551.995 445.437C578.45 457.45 591.489 495.826 591.489 495.826L646.844 408.813L580.373 295.741L474.661 399.549C474.661 399.549 486.985 325.105 541.198 283.132C522.367 260.763 458.421 186.602 458.421 186.602C458.421 186.602 394.47 260.763 375.639 283.132C429.852 325.105 442.177 399.549 442.177 399.549L336.471 295.741L270 408.813L325.355 495.826C325.355 495.826 338.394 457.45 364.849 445.437C391.303 433.422 431.174 447.769 435.001 484.785C445.635 587.614 351.731 551.889 351.731 551.889L396.627 628.7L436.054 605.751L443.082 631.219L411.02 649.429L458.421 727.351Z" stroke="black" stroke-width="19.0425"/>
</svg>
