<svg width="915" height="915" viewBox="0 0 915 915" fill="none" xmlns="http://www.w3.org/2000/svg">
<circle cx="457.5" cy="457.5" r="457.5" fill="#040505"/>
<path d="M529.862 297.524L387.23 297.524C346.863 297.524 328.174 321.446 328.174 347.61C328.174 393.055 408.916 416.226 433.384 433.914C434.984 435.071 435.821 436.949 435.821 438.923V524.081C435.821 536.036 445.513 545.711 457.468 545.711H459.915C471.815 545.711 481.484 536.139 481.558 524.239C481.774 489.776 482.169 424.271 482.169 407.414C482.169 384.24 448.529 368.542 448.529 368.542H533.75V402.997C533.75 411.217 540.413 417.88 548.632 417.88H651.931C660.151 417.88 666.814 411.148 666.814 402.929C666.814 394.71 660.151 387.978 651.931 387.978H563.652V331.348C563.652 312.668 548.542 297.524 529.862 297.524Z" fill="white"/>
<circle cx="301.262" cy="537.488" r="72.6838" fill="white" stroke="white" stroke-width="74.4118"/>
<circle cx="609.252" cy="546.458" r="67.0956" fill="white" stroke="white" stroke-width="67.6471"/>
<circle cx="604.767" cy="283.321" r="42.6103" fill="white"/>
<path d="M505.343 250.655L643.64 300.514C643.64 300.514 663.824 253.419 618.971 236.225C593.885 226.609 505.343 250.655 505.343 250.655Z" fill="white"/>
</svg>
