<svg width="915" height="915" viewBox="0 0 915 915" fill="none" xmlns="http://www.w3.org/2000/svg">
<circle cx="457.5" cy="457.5" r="413.388" stroke="#040505" stroke-width="88.2231"/>
<path fill-rule="evenodd" clip-rule="evenodd" d="M297.587 211H460.018C473.837 211 486.707 218.031 494.173 229.661C498.373 236.203 500.605 243.813 500.605 251.587V383.579C500.605 388.076 500.177 392.563 499.326 396.979L482.635 483.585C476.212 516.915 447.043 541 413.1 541H344.506C310.562 541 281.393 516.915 274.97 483.585L258.279 396.979C257.428 392.563 257 388.076 257 383.579V251.587C257 243.813 259.233 236.203 263.432 229.661C270.898 218.031 283.768 211 297.587 211ZM463.781 280.399H293.116V376H463.781V280.399Z" fill="black"/>
<rect x="522.046" y="496.574" width="79.9566" height="221.213" rx="19.9892" transform="rotate(32.2512 522.046 496.574)" fill="black"/>
<rect x="573.6" y="461.479" width="30.2145" height="57.1917" transform="rotate(32.2512 573.6 461.479)" fill="black"/>
<rect x="619.666" y="424.196" width="30.2145" height="59.4303" transform="rotate(50.9602 619.666 424.196)" fill="black"/>
<path d="M657.689 368.827C660.398 366.072 664.901 366.287 667.334 369.288L702.376 412.501C704.81 415.502 704.09 419.953 700.835 422.034L630.844 466.781C628.068 468.555 624.403 467.963 622.328 465.404L599.035 436.679C596.96 434.12 597.137 430.411 599.447 428.062L657.689 368.827Z" fill="black"/>
</svg>
