<svg width="915" height="915" viewBox="0 0 915 915" fill="none" xmlns="http://www.w3.org/2000/svg">
<circle cx="457.5" cy="457.5" r="457.5" fill="#040505"/>
<path d="M457.5 142.418V638.988C409.431 553.608 388.922 472.448 385.737 400.105L431.544 418.213L385.661 361.104C389.527 265.582 422.84 188.61 457.5 142.418Z" fill="white"/>
<path d="M457.5 142.417V638.987C470.095 616.616 480.79 594.534 489.773 572.824L468.843 557.502L495.323 558.895C516.805 502.838 526.972 449.422 529.143 400.104C529.729 386.796 529.733 373.786 529.219 361.103C528.688 347.974 527.603 335.195 526.035 322.798L484.597 345.085L518.626 280.702C505.367 222.293 481.794 174.794 457.5 142.417Z" fill="white"/>
<path d="M444.897 553.285H470.103V747.376L457.5 771.322L444.897 747.376V553.285Z" fill="white"/>
</svg>
