<svg width="915" height="915" viewBox="0 0 915 915" fill="none" xmlns="http://www.w3.org/2000/svg">
<circle cx="457.5" cy="457.5" r="457.5" fill="#040505"/>
<rect x="176.446" y="621.597" width="485.948" height="51.2945" fill="white"/>
<rect x="229.845" y="635.63" width="379.275" height="51.2945" transform="rotate(-53 229.845 635.63)" fill="white"/>
<rect width="379.275" height="51.2945" transform="matrix(0.601815 0.798636 0.798636 -0.601815 341.129 363.6)" fill="white"/>
<path fill-rule="evenodd" clip-rule="evenodd" d="M591.172 375.583C644.524 370.915 683.991 323.881 679.323 270.528C678.073 256.238 673.783 242.944 667.147 231.227C664.961 227.369 668.403 222.566 672.48 224.308C702.123 236.969 724.001 265.138 727.007 299.493C731.352 349.152 694.617 392.93 644.958 397.275C624.382 399.075 604.815 393.822 588.644 383.519C585.086 381.252 586.968 375.951 591.172 375.583V375.583Z" fill="white"/>
</svg>
