<svg width="915" height="915" viewBox="0 0 915 915" fill="none" xmlns="http://www.w3.org/2000/svg">
<circle cx="457.498" cy="457.498" r="413.387" stroke="#040505" stroke-width="88.2227" stroke-dasharray="126.03 100.83"/>
<mask id="mask0_401_24" style="mask-type:alpha" maskUnits="userSpaceOnUse" x="0" y="0" width="915" height="915">
<circle cx="457.5" cy="457.498" r="413.386" stroke="black" stroke-width="88.2227"/>
</mask>
<g mask="url(#mask0_401_24)">
<path d="M-172.662 -42.8511H909.326L1020.23 878.446L436.074 975.491V489.006H-172.662V-42.8511Z" fill="#040505"/>
</g>
<path d="M456.929 759V650.6M456.929 759L244 542.2L297.232 488L456.929 650.6M456.929 759L669.857 542.2L616.625 488L456.929 650.6" stroke="black" stroke-width="19.3571" stroke-linecap="round"/>
<path fill-rule="evenodd" clip-rule="evenodd" d="M375.587 158H538.018C551.837 158 564.707 165.031 572.173 176.661C576.373 183.203 578.605 190.813 578.605 198.587V330.579C578.605 335.076 578.177 339.563 577.326 343.979L560.635 430.585C554.212 463.915 525.043 488 491.1 488H422.506C388.562 488 359.393 463.915 352.97 430.585L336.279 343.979C335.428 339.563 335 335.076 335 330.579V198.587C335 190.813 337.233 183.203 341.432 176.661C348.898 165.031 361.768 158 375.587 158ZM541.781 227.399H371.116V323H541.781V227.399Z" fill="black"/>
</svg>
